<?xml version="1.0" standalone="no"?>
<!DOCTYPE svg PUBLIC "-//W3C//DTD SVG 20010904//EN"
 "http://www.w3.org/TR/2001/REC-SVG-20010904/DTD/svg10.dtd">
<svg version="1.0" xmlns="http://www.w3.org/2000/svg"
 width="1500.000000pt" height="1500.000000pt" viewBox="0 0 1500.000000 1500.000000"
 preserveAspectRatio="xMidYMid meet">
<metadata>
Created by potrace 1.14, written by Peter Selinger 2001-2017
</metadata>
<g transform="translate(0.000000,1500.000000) scale(0.100000,-0.100000)"
fill="#000000" stroke="none">
<path d="M9989 13046 c-2 -2 -35 -6 -74 -10 -64 -5 -149 -18 -200 -30 -11 -2
-42 -9 -70 -16 -87 -19 -186 -52 -296 -95 -653 -262 -1152 -865 -1284 -1552
-16 -85 -21 -95 -69 -150 -28 -33 -73 -85 -101 -117 -27 -32 -64 -75 -81 -95
-54 -62 -355 -415 -372 -436 -28 -34 -126 -148 -142 -165 -18 -20 -48 -55
-115 -135 -27 -33 -59 -69 -70 -81 -11 -12 -40 -45 -65 -75 -25 -29 -63 -74
-85 -99 -22 -26 -59 -69 -81 -96 -23 -27 -52 -60 -64 -74 -12 -14 -41 -47 -64
-74 -22 -27 -46 -54 -51 -60 -6 -6 -35 -40 -65 -76 -30 -36 -57 -67 -60 -70
-3 -3 -45 -52 -94 -110 -50 -58 -95 -109 -100 -115 -6 -5 -29 -32 -51 -60 -21
-27 -42 -52 -46 -55 -5 -4 -103 -117 -318 -369 -25 -30 -51 -59 -56 -65 -6 -6
-62 -72 -125 -146 -63 -74 -119 -140 -125 -146 -5 -6 -31 -35 -56 -65 -26 -30
-135 -157 -244 -284 -108 -126 -218 -255 -243 -284 -62 -73 -188 -218 -221
-256 -14 -16 -48 -57 -75 -90 -28 -33 -53 -62 -57 -65 -4 -3 -23 -25 -44 -50
-39 -47 -75 -89 -196 -230 -41 -47 -96 -112 -124 -144 -27 -32 -58 -68 -68
-80 -11 -11 -35 -41 -55 -65 -21 -24 -44 -51 -53 -60 -8 -9 -40 -45 -70 -81
-30 -36 -56 -67 -59 -70 -3 -3 -59 -68 -125 -145 -66 -77 -129 -151 -141 -165
-12 -14 -53 -61 -91 -105 -143 -164 -182 -252 -188 -421 -2 -67 2 -105 19
-201 9 -49 54 -169 93 -248 36 -73 175 -289 194 -301 6 -3 -173 -191 -418
-438 -446 -447 -498 -508 -584 -677 -68 -135 -127 -320 -146 -455 -14 -102 -8
-380 11 -469 64 -306 191 -543 405 -756 221 -219 479 -353 781 -405 132 -22
415 -22 482 1 7 2 29 6 48 9 101 15 290 86 403 150 171 98 225 147 949 870
450 449 731 722 761 739 204 119 463 92 628 -65 119 -113 179 -267 166 -426
-10 -120 -44 -201 -125 -299 -72 -87 -92 -125 -97 -184 -14 -158 104 -289 260
-289 82 0 146 31 213 105 324 354 366 883 102 1282 -133 201 -308 338 -534
417 -53 19 -96 33 -96 31 0 -2 -14 0 -31 5 -96 28 -276 30 -414 5 -125 -23
-295 -95 -403 -171 -40 -28 -353 -332 -787 -764 -396 -394 -740 -731 -765
-747 -72 -48 -130 -78 -205 -105 -128 -47 -164 -53 -320 -53 -123 0 -164 4
-230 22 -108 30 -185 65 -280 128 -326 217 -479 619 -380 1000 17 64 17 65 65
168 53 115 136 209 534 606 l386 384 72 -54 c173 -129 366 -219 535 -249 97
-17 251 -9 327 19 67 23 150 71 192 110 16 14 90 78 164 141 74 63 137 117
140 120 5 5 116 101 170 146 14 12 48 41 76 65 28 24 77 67 109 94 32 28 68
59 80 70 13 11 44 38 71 60 45 37 196 168 220 190 6 5 32 28 59 50 27 22 59
49 71 60 12 11 42 37 66 57 24 20 54 47 68 59 14 12 81 69 150 127 69 59 127
109 130 112 3 3 86 75 185 160 681 583 1301 1115 1305 1119 3 4 34 31 70 61
36 30 72 61 81 70 9 8 38 33 65 55 26 22 69 58 94 80 25 22 70 61 100 87 130
110 588 503 621 532 19 17 59 51 89 76 30 25 66 56 82 70 15 14 47 41 70 61
192 163 348 296 373 318 17 14 105 90 197 169 l168 143 121 25 c627 130 1191
574 1465 1154 65 138 140 348 158 444 2 12 9 50 16 86 53 282 44 590 -25 884
-46 195 -163 469 -270 631 -355 540 -884 871 -1515 949 -94 12 -391 21 -401
12z m-768 -3014 l818 -818 -47 -40 c-70 -60 -424 -363 -452 -387 -14 -12 -56
-49 -95 -82 -38 -33 -83 -72 -100 -87 -16 -14 -113 -97 -214 -184 -102 -88
-218 -188 -259 -224 -41 -36 -91 -78 -111 -95 -20 -16 -100 -84 -177 -151
-142 -122 -159 -136 -249 -215 -28 -24 -75 -64 -104 -89 -30 -25 -59 -49 -65
-55 -6 -5 -40 -35 -76 -65 -36 -30 -101 -86 -145 -125 -45 -38 -105 -91 -135
-117 -30 -25 -95 -81 -145 -123 -49 -42 -101 -87 -115 -99 -14 -12 -151 -130
-305 -261 -154 -132 -282 -242 -285 -245 -3 -3 -34 -30 -70 -60 -36 -30 -67
-57 -70 -60 -3 -3 -34 -30 -70 -60 -36 -30 -70 -59 -76 -65 -6 -5 -37 -32 -70
-60 -32 -27 -79 -68 -104 -90 -26 -22 -71 -61 -101 -86 -46 -40 -192 -165
-334 -286 -22 -19 -65 -56 -95 -83 -30 -26 -109 -93 -175 -150 -66 -56 -133
-114 -150 -129 -16 -14 -59 -51 -95 -81 -36 -30 -67 -57 -70 -60 -3 -3 -34
-30 -70 -59 -36 -30 -70 -60 -75 -65 -6 -6 -37 -34 -70 -62 -97 -82 -109 -92
-135 -114 -125 -108 -137 -113 -221 -98 -127 23 -277 120 -463 298 -165 158
-289 323 -336 448 -22 58 -33 141 -23 170 6 15 155 197 218 266 10 11 112 130
152 176 51 60 238 278 262 305 14 16 51 60 83 97 31 37 63 74 72 83 8 9 32 37
53 62 21 26 45 54 53 63 8 9 38 42 65 75 28 32 64 75 81 94 55 64 442 516 523
610 57 67 184 215 220 256 14 17 64 75 111 130 47 55 87 102 90 105 3 3 72 84
155 180 82 96 151 177 154 180 4 3 29 32 57 65 76 90 91 108 114 135 12 14 41
47 64 74 22 27 46 54 51 60 6 6 37 43 70 81 32 39 66 77 75 86 8 9 24 27 34
40 21 26 128 151 136 159 3 3 28 32 55 65 28 33 57 67 65 75 8 9 34 38 57 65
23 28 50 60 60 71 10 12 36 43 58 70 22 26 45 52 50 58 6 6 42 47 80 91 38 44
82 94 96 110 40 45 763 888 833 972 34 40 63 72 65 73 2 0 372 -368 822 -818z"/>
<path d="M8500 9641 c-62 -20 -113 -67 -575 -529 -531 -532 -535 -536 -535
-641 0 -75 17 -125 62 -176 56 -63 108 -88 193 -89 55 -1 80 4 118 23 68 33
1021 984 1047 1045 27 60 32 114 16 174 -31 113 -125 191 -240 198 -33 2 -72
0 -86 -5z"/>
</g>
</svg>
